# xmcd
#
# Track frame offsets: 
#        183
#        17315
#        35130
#        48718
#        66055
#        81328
#        97998
#        113808
#        133343
#        149975
#        170143
#        185605
#
# Disc length: 2749 seconds
#
# Revision: 1
# Processed by: cddbd v1.5.2PL0 Copyright (c) Steve Scherf et al.
# Submitted via: ExactAudioCopy v1.0b1
#
DISCID=b60abb0c
DTITLE=邓丽君 - 再见！我的爱人[岛国之情歌]
DYEAR=1977
DGENRE=Pop
TTITLE0=情人的关怀（原名：空港）
TTITLE1=请你别再找我
TTITLE2=不论今宵或明天
TTITLE3=相聚更甜蜜
TTITLE4=雨下的花朵
TTITLE5=冬之恋情（原名：雪化妆）
TTITLE6=再见，我的爱人
TTITLE7=谁来爱我
TTITLE8=再来一杯
TTITLE9=夜雾下的姑娘
TTITLE10=逃避行
TTITLE11=爱的理想
EXTD=
EXTT0=
EXTT1=
EXTT2=
EXTT3=
EXTT4=
EXTT5=
EXTT6=
EXTT7=
EXTT8=
EXTT9=
EXTT10=
EXTT11=
PLAYORDER=
